<?xml version="1.0"?>
<svg xmlns="http://www.w3.org/2000/svg" height="512px" viewBox="0 0 512 512" width="512px" class=""><g><path d="m512 256c0 60.992188-21.328125 117.007812-56.957031 160.988281-46.917969 57.960938-118.660157 95.011719-199.042969 95.011719-43.644531 0-84.730469-10.917969-120.6875-30.175781-30.28125-16.21875-56.914062-38.347657-78.355469-64.835938-35.621093-43.980469-56.957031-99.988281-56.957031-160.988281 0-141.386719 114.613281-256 256-256s256 114.613281 256 256zm0 0" fill="#663a91" data-original="#663A91" class="" style="fill:#FCFAFC" data-old_color="#F9F7F9"/><path d="m455.042969 146.273438v270.714843c-46.917969 57.960938-118.660157 95.011719-199.042969 95.011719-43.644531 0-84.730469-10.917969-120.6875-30.175781-30.28125-16.21875-56.914062-38.347657-78.355469-64.835938v-270.714843zm0 0" fill="#e5e1dc" data-original="#E5E1DC"/><path d="m455.042969 182.3125v234.675781c-46.917969 57.960938-118.660157 95.011719-199.042969 95.011719-43.644531 0-84.730469-10.917969-120.6875-30.175781v-265.730469c0-18.648438 15.132812-33.78125 33.785156-33.78125zm0 0" fill="#fcf8f2" data-original="#FCF8F2" class=""/><path d="m383.34375 111.792969h-261.292969c-5.53125 0-10.65625-2.917969-13.480469-7.679688-2.820312-4.757812-2.925781-10.65625-.269531-15.511719l43.957031-80.441406c2.75-5.03125 8.023438-8.15624975 13.753907-8.15624975h173.375c5.730469 0 11.003906 3.12499975 13.753906 8.15624975l43.957031 80.441406c2.652344 4.855469 2.550782 10.753907-.273437 15.511719-2.820313 4.761719-7.945313 7.679688-13.480469 7.679688zm-234.863281-31.347657h208.4375l-26.828125-49.097656h-154.78125zm0 0" fill="#d1cfcd" data-original="#D1CFCD" class="active-path" style="fill:#6C63FF" data-old_color="#6c63ff"/><path d="m467.582031 166.421875h-423.175781c-17.238281 0-30.238281-15.664063-27.070312-32.613281l8.839843-47.300782c2.433594-13.042968 13.8125-22.488281 27.082031-22.488281h405.484376c13.257812 0 24.636718 9.445313 27.074218 22.488281l8.847656 47.300782c3.167969 16.949218-9.84375 32.613281-27.082031 32.613281zm0 0" fill="#e5e1dc" data-original="#E5E1DC"/><path d="m467.582031 166.421875h-328.515625c-17.242187 0-30.25-15.664063-27.074218-32.613281l8.839843-47.300782c2.433594-13.042968 13.8125-22.488281 27.074219-22.488281h310.835938c13.257812 0 24.636718 9.445313 27.074218 22.488281l8.847656 47.300782c3.167969 16.949218-9.84375 32.613281-27.082031 32.613281zm0 0" fill="#fcf8f2" data-original="#FCF8F2" class=""/><path d="m394.59375 256.761719v188.070312c0 16.875-13.675781 30.5625-30.5625 30.5625-3.5625 0-6.988281-.613281-10.175781-1.753906-11.871094-4.179687-20.375-15.507813-20.375-28.808594v-188.070312c0-13.300781 8.503906-24.628907 20.375-28.816407 3.1875-1.140624 6.613281-1.746093 10.175781-1.746093 8.445312 0 16.082031 3.417969 21.621094 8.953125 5.527344 5.53125 8.941406 13.167968 8.941406 21.609375zm0 0" fill="#d1cfcd" data-original="#D1CFCD" class="active-path" style="fill:#6C63FF" data-old_color="#6c63ff"/><path d="m286.5625 256.761719v188.070312c0 16.875-13.6875 30.5625-30.5625 30.5625-3.574219 0-7-.613281-10.1875-1.753906-11.871094-4.179687-20.375-15.507813-20.375-28.808594v-188.070312c0-13.300781 8.503906-24.628907 20.375-28.816407 3.1875-1.128906 6.613281-1.746093 10.1875-1.746093 8.441406 0 16.082031 3.417969 21.609375 8.953125 5.535156 5.53125 8.953125 13.167968 8.953125 21.609375zm0 0" fill="#d1cfcd" data-original="#D1CFCD" class="active-path" style="fill:#6C63FF" data-old_color="#6c63ff"/><path d="m178.519531 256.761719v188.070312c0 16.875-13.6875 30.5625-30.5625 30.5625-3.574219 0-7-.613281-10.1875-1.753906-11.871093-4.179687-20.375-15.507813-20.375-28.808594v-188.070312c0-13.300781 8.503907-24.628907 20.375-28.816407 3.1875-1.128906 6.613281-1.746093 10.1875-1.746093 8.441407 0 16.082031 3.417969 21.609375 8.953125 5.539063 5.53125 8.953125 13.167968 8.953125 21.609375zm0 0" fill="#d1cfcd" data-original="#D1CFCD" class="active-path" style="fill:#6C63FF" data-old_color="#6c63ff"/><g fill="#e5e1dc"><path d="m374.21875 256.761719v188.070312c0 13.300781-8.492188 24.617188-20.363281 28.808594-11.871094-4.179687-20.375-15.507813-20.375-28.808594v-188.070312c0-13.300781 8.503906-24.628907 20.375-28.816407 4.335937 1.535157 8.234375 4.023438 11.421875 7.207032 5.527344 5.53125 8.941406 13.167968 8.941406 21.609375zm0 0" data-original="#000000" class="" style="fill:#6C63FF" data-old_color="#6c63ff"/><path d="m266.1875 256.761719v188.070312c0 13.300781-8.503906 24.628907-20.375 28.808594-11.871094-4.179687-20.375-15.507813-20.375-28.808594v-188.070312c0-13.300781 8.503906-24.628907 20.375-28.816407 4.347656 1.523438 8.234375 4.011719 11.421875 7.207032 5.535156 5.53125 8.953125 13.167968 8.953125 21.609375zm0 0" data-original="#000000" class="" style="fill:#6C63FF" data-old_color="#6c63ff"/><path d="m158.144531 256.761719v188.070312c0 13.300781-8.503906 24.628907-20.375 28.808594-11.871093-4.179687-20.375-15.507813-20.375-28.808594v-188.070312c0-13.300781 8.503907-24.628907 20.375-28.816407 4.347657 1.523438 8.234375 4.011719 11.421875 7.207032 5.535156 5.53125 8.953125 13.167968 8.953125 21.609375zm0 0" data-original="#000000" class="" style="fill:#6C63FF" data-old_color="#6c63ff"/></g></g> </svg>
